<svg width="67" height="38" viewBox="0 0 67 38" fill="none" xmlns="http://www.w3.org/2000/svg">
<path d="M56.742 9.33724C56.5893 9.33724 56.4402 9.34211 56.2799 9.34904C56.1279 9.34238 55.9743 9.33724 55.8179 9.33724C54.8169 9.33792 53.8222 9.50008 52.8695 9.81787H27.302L32.378 4.48242H0.30542L6.19012 10.3918V23.8168L0.514546 29.8265H45.2591L49.2617 35.103V33.8878L50.1835 35.1037V28.273C51.8179 29.5126 53.7919 30.1794 55.8179 30.1762C55.9741 30.1762 56.1274 30.1733 56.2797 30.1666C56.4309 30.1733 56.5852 30.1762 56.742 30.1762C61.4418 30.1762 66.1999 26.5975 66.1999 19.7559C66.1999 12.9159 61.4418 9.33724 56.742 9.33724ZM25.3226 19.3633L22.4505 14.9171L23.813 13.4845L25.3226 15.036V19.3633Z" fill="#020A0A"/>
<mask id="mask0_1180_408818" style="mask-type:alpha" maskUnits="userSpaceOnUse" x="13" y="29" width="8" height="9">
<path d="M20.5169 33.6369V33.38C20.5169 31.358 18.8777 29.7188 16.8556 29.7188C14.8336 29.7188 13.1943 31.358 13.1943 33.38V33.6369C13.1943 35.659 14.8336 37.2982 16.8556 37.2982C18.8777 37.2982 20.5169 35.659 20.5169 33.6369Z" fill="#E95014"/>
</mask>
<g mask="url(#mask0_1180_408818)">
<ellipse cx="16.8524" cy="33.3375" rx="4.63316" ry="3.97128" fill="url(#paint0_radial_1180_408818)"/>
</g>
<mask id="mask1_1180_408818" style="mask-type:alpha" maskUnits="userSpaceOnUse" x="21" y="29" width="8" height="9">
<path d="M28.4595 33.6369V33.38C28.4595 31.358 26.8203 29.7188 24.7983 29.7188C22.7762 29.7188 21.137 31.358 21.137 33.38V33.6369C21.137 35.659 22.7762 37.2982 24.7983 37.2982C26.8203 37.2982 28.4595 35.659 28.4595 33.6369Z" fill="#E95014"/>
</mask>
<g mask="url(#mask1_1180_408818)">
<ellipse cx="24.795" cy="33.3375" rx="4.63316" ry="3.97128" fill="url(#paint1_radial_1180_408818)"/>
</g>
<mask id="mask2_1180_408818" style="mask-type:alpha" maskUnits="userSpaceOnUse" x="29" y="29" width="8" height="9">
<path d="M36.4022 33.6369V33.38C36.4022 31.358 34.7629 29.7188 32.7409 29.7188C30.7188 29.7188 29.0796 31.358 29.0796 33.38V33.6369C29.0796 35.659 30.7188 37.2982 32.7409 37.2982C34.7629 37.2982 36.4022 35.659 36.4022 33.6369Z" fill="#E95014"/>
</mask>
<g mask="url(#mask2_1180_408818)">
<ellipse cx="32.7376" cy="33.3375" rx="4.63316" ry="3.97128" fill="url(#paint2_radial_1180_408818)"/>
</g>
<mask id="mask3_1180_408818" style="mask-type:alpha" maskUnits="userSpaceOnUse" x="37" y="29" width="8" height="9">
<path d="M44.3448 33.6369V33.38C44.3448 31.358 42.7056 29.7188 40.6835 29.7188C38.6614 29.7188 37.0222 31.358 37.0222 33.38V33.6369C37.0222 35.659 38.6614 37.2982 40.6835 37.2982C42.7056 37.2982 44.3448 35.659 44.3448 33.6369Z" fill="#E95014"/>
</mask>
<g mask="url(#mask3_1180_408818)">
<ellipse cx="40.6803" cy="33.3375" rx="4.63316" ry="3.97128" fill="url(#paint3_radial_1180_408818)"/>
</g>
<mask id="mask4_1180_408818" style="mask-type:alpha" maskUnits="userSpaceOnUse" x="44" y="29" width="9" height="9">
<path d="M52.2874 33.6369V33.38C52.2874 31.358 50.6482 29.7188 48.6261 29.7188C46.6041 29.7188 44.9648 31.358 44.9648 33.38V33.6369C44.9648 35.659 46.6041 37.2982 48.6261 37.2982C50.6482 37.2982 52.2874 35.659 52.2874 33.6369Z" fill="#E95014"/>
</mask>
<g mask="url(#mask4_1180_408818)">
<ellipse cx="48.6229" cy="33.3375" rx="4.63316" ry="3.97128" fill="url(#paint4_radial_1180_408818)"/>
</g>
<mask id="mask5_1180_408818" style="mask-type:alpha" maskUnits="userSpaceOnUse" x="52" y="29" width="9" height="9">
<path d="M60.2296 33.6369V33.38C60.2296 31.358 58.5903 29.7188 56.5683 29.7188C54.5462 29.7188 52.907 31.358 52.907 33.38V33.6369C52.907 35.659 54.5462 37.2982 56.5683 37.2982C58.5903 37.2982 60.2296 35.659 60.2296 33.6369Z" fill="#E95014"/>
</mask>
<g mask="url(#mask5_1180_408818)">
<ellipse cx="56.565" cy="33.3375" rx="4.63316" ry="3.97128" fill="url(#paint5_radial_1180_408818)"/>
</g>
<mask id="mask6_1180_408818" style="mask-type:alpha" maskUnits="userSpaceOnUse" x="5" y="29" width="8" height="9">
<path d="M12.5743 33.6369V33.38C12.5743 31.358 10.9351 29.7188 8.913 29.7188C6.89092 29.7188 5.25171 31.358 5.25171 33.38V33.6369C5.25171 35.659 6.89092 37.2982 8.913 37.2982C10.9351 37.2982 12.5743 35.659 12.5743 33.6369Z" fill="#E95014"/>
</mask>
<g mask="url(#mask6_1180_408818)">
<ellipse cx="8.90977" cy="33.3375" rx="4.63316" ry="3.97128" fill="url(#paint6_radial_1180_408818)"/>
</g>
<mask id="mask7_1180_408818" style="mask-type:alpha" maskUnits="userSpaceOnUse" x="26" y="0" width="10" height="11">
<path d="M35.8828 5.49493C35.8828 6.46381 35.6052 7.41091 35.0853 8.21647C34.5654 9.02204 33.8265 9.64989 32.9619 10.0206C32.0974 10.3914 31.1461 10.4884 30.2284 10.2993C29.3106 10.1103 28.4676 9.64371 27.8059 8.95861C27.1443 8.27351 26.6937 7.40064 26.5111 6.45038C26.3285 5.50012 26.4222 4.51514 26.7803 3.62001C27.1383 2.72487 27.7447 1.95976 28.5227 1.42144C29.3007 0.883125 30.2155 0.595766 31.1512 0.595703C32.4061 0.595735 33.6096 1.11191 34.4969 2.03069C35.3843 2.94947 35.8828 4.19558 35.8828 5.49493Z" fill="#E95014"/>
</mask>
<g mask="url(#mask7_1180_408818)">
<ellipse cx="31.4142" cy="5.2284" rx="5.95691" ry="5.95692" fill="url(#paint7_radial_1180_408818)"/>
</g>
<path d="M5.97192 6.86133H16.2891L13.7768 9.38527V16.0664L20.4155 9.38527L18.2387 6.86133H25.9679L18.5776 14.629L26.3808 26.7078L27.6186 25.497V14.0461L25.8192 12.1965H33.3212L31.596 13.9682V25.497L33.3212 27.4489H19.0273V24.8065L13.8132 16.6882V24.7868L16.2891 27.4489H5.97192L8.48614 24.7868V9.38527L5.97192 6.86133Z" fill="white"/>
<path d="M34.5476 12.1973H39.4611L45.014 20.0297V13.9689L43.326 12.1973H48.7659L46.9648 14.0872V28.226L38.4493 17.0001V25.4977L40.2868 27.4497H34.5476L36.3865 25.4977V14.0468L34.5476 12.1973Z" fill="white"/>
<path d="M62.9811 19.7563C62.9811 23.8513 60.507 27.7979 55.8181 27.7979C51.1302 27.7979 48.6562 23.8513 48.6562 19.7563C48.6562 15.6613 51.1302 11.7158 55.8182 11.7158C60.507 11.7158 62.9811 15.6613 62.9811 19.7563ZM55.8182 13.6248C53.4172 13.6248 53.0044 16.6326 53.0044 19.7563C53.0044 22.8791 53.4172 25.8889 55.8182 25.8889C58.2216 25.8889 58.635 22.8791 58.635 19.7563C58.6349 16.6326 58.2215 13.6248 55.8182 13.6248Z" fill="white"/>
<path d="M6.3689 6.86133H16.6866L14.1724 9.38527V16.0664L20.8137 9.38527L18.6378 6.86133H26.3649L18.9748 14.629L26.7787 26.7078L28.0168 25.497V14.0461L26.2145 12.1965H33.7187L31.9935 13.9682V25.497L33.7187 27.4489H19.4245V24.8065L14.2107 16.6882V24.7868L16.6866 27.4489H6.3689L8.88335 24.7868V9.38527L6.3689 6.86133Z" fill="#E95014"/>
<path d="M34.9441 12.1973H39.8579L45.4093 20.0297V13.9689L43.7218 12.1973H49.1616L47.3627 14.0872V28.226L38.8461 17.0001V25.4977L40.685 27.4497H34.9441L36.7818 25.4977V14.0468L34.9441 12.1973Z" fill="#E95014"/>
<path d="M63.3768 19.7563C63.3768 23.8513 60.9044 27.7979 56.2162 27.7979C51.5265 27.7979 49.0532 23.8513 49.0532 19.7563C49.0532 15.6613 51.5265 11.7158 56.2162 11.7158C60.9044 11.7158 63.3768 15.6613 63.3768 19.7563ZM56.2162 13.6248C53.8157 13.6248 53.3992 16.6326 53.3992 19.7563C53.3992 22.8791 53.8157 25.8889 56.2162 25.8889C58.6157 25.8889 59.0317 22.8791 59.0317 19.7563C59.0317 16.6326 58.6157 13.6248 56.2162 13.6248Z" fill="#E95014"/>
<path d="M6.89551 6.86133H17.213L14.699 9.38527V16.0664L21.3382 9.38527L19.1623 6.86133H26.8908L19.5011 14.629L27.3039 26.7078L28.5427 25.497V14.0461L26.7411 12.1965H34.2441L32.5177 13.9682V25.497L34.2441 27.4489H19.9516V24.8065L14.7354 16.6882V24.7868L17.213 27.4489H6.89551L9.40973 24.7868V9.38527L6.89551 6.86133Z" fill="#FFDD00"/>
<path d="M35.4695 12.1973H40.3844L45.9373 20.0296V13.9689L44.2486 12.1973H49.687L47.8874 14.0872V28.226L39.3715 17.0001V25.4977L41.2099 27.4496H35.4695L37.3079 25.4977V14.0468L35.4695 12.1973Z" fill="#FFDD00"/>
<path d="M56.7425 27.7979C61.4307 27.7979 63.9035 23.8513 63.9035 19.7563C63.9035 15.6613 61.4307 11.7158 56.7425 11.7158C52.0513 11.7158 49.5791 15.6613 49.5791 19.7563C49.5791 23.8513 52.0513 27.7979 56.7425 27.7979ZM56.7425 13.6248C59.1431 13.6248 59.5574 16.6326 59.5574 19.7563C59.5574 22.8791 59.1431 25.8889 56.7425 25.8889C54.3404 25.8889 53.924 22.8791 53.924 19.7563C53.924 16.6326 54.3405 13.6248 56.7425 13.6248Z" fill="#FFDD00"/>
<defs>
<radialGradient id="paint0_radial_1180_408818" cx="0" cy="0" r="1" gradientUnits="userSpaceOnUse" gradientTransform="translate(17.5143 32.6756) rotate(116.565) scale(4.44002 5.18003)">
<stop offset="0.137355" stop-color="#FFFCEF"/>
<stop offset="0.40177" stop-color="#FFE200"/>
<stop offset="0.586769" stop-color="#F9BE00"/>
<stop offset="1" stop-color="#EA5A13"/>
</radialGradient>
<radialGradient id="paint1_radial_1180_408818" cx="0" cy="0" r="1" gradientUnits="userSpaceOnUse" gradientTransform="translate(25.4569 32.6756) rotate(116.565) scale(4.44002 5.18003)">
<stop offset="0.137355" stop-color="#FFFCEF"/>
<stop offset="0.40177" stop-color="#FFE200"/>
<stop offset="0.586769" stop-color="#F9BE00"/>
<stop offset="1" stop-color="#EA5A13"/>
</radialGradient>
<radialGradient id="paint2_radial_1180_408818" cx="0" cy="0" r="1" gradientUnits="userSpaceOnUse" gradientTransform="translate(33.3995 32.6756) rotate(116.565) scale(4.44002 5.18003)">
<stop offset="0.137355" stop-color="#FFFCEF"/>
<stop offset="0.40177" stop-color="#FFE200"/>
<stop offset="0.586769" stop-color="#F9BE00"/>
<stop offset="1" stop-color="#EA5A13"/>
</radialGradient>
<radialGradient id="paint3_radial_1180_408818" cx="0" cy="0" r="1" gradientUnits="userSpaceOnUse" gradientTransform="translate(41.3422 32.6756) rotate(116.565) scale(4.44002 5.18003)">
<stop offset="0.137355" stop-color="#FFFCEF"/>
<stop offset="0.40177" stop-color="#FFE200"/>
<stop offset="0.586769" stop-color="#F9BE00"/>
<stop offset="1" stop-color="#EA5A13"/>
</radialGradient>
<radialGradient id="paint4_radial_1180_408818" cx="0" cy="0" r="1" gradientUnits="userSpaceOnUse" gradientTransform="translate(49.2848 32.6756) rotate(116.565) scale(4.44002 5.18003)">
<stop offset="0.137355" stop-color="#FFFCEF"/>
<stop offset="0.40177" stop-color="#FFE200"/>
<stop offset="0.586769" stop-color="#F9BE00"/>
<stop offset="1" stop-color="#EA5A13"/>
</radialGradient>
<radialGradient id="paint5_radial_1180_408818" cx="0" cy="0" r="1" gradientUnits="userSpaceOnUse" gradientTransform="translate(57.2269 32.6756) rotate(116.565) scale(4.44002 5.18003)">
<stop offset="0.137355" stop-color="#FFFCEF"/>
<stop offset="0.40177" stop-color="#FFE200"/>
<stop offset="0.586769" stop-color="#F9BE00"/>
<stop offset="1" stop-color="#EA5A13"/>
</radialGradient>
<radialGradient id="paint6_radial_1180_408818" cx="0" cy="0" r="1" gradientUnits="userSpaceOnUse" gradientTransform="translate(9.57165 32.6756) rotate(116.565) scale(4.44002 5.18003)">
<stop offset="0.137355" stop-color="#FFFCEF"/>
<stop offset="0.40177" stop-color="#FFE200"/>
<stop offset="0.586769" stop-color="#F9BE00"/>
<stop offset="1" stop-color="#EA5A13"/>
</radialGradient>
<radialGradient id="paint7_radial_1180_408818" cx="0" cy="0" r="1" gradientUnits="userSpaceOnUse" gradientTransform="translate(31.4142 5.2284) rotate(108.925) scale(5.24776 5.54181)">
<stop offset="0.137355" stop-color="#FFFCEF"/>
<stop offset="0.40177" stop-color="#FFE200"/>
<stop offset="0.586769" stop-color="#F9BE00"/>
<stop offset="0.92568" stop-color="#E95414"/>
</radialGradient>
</defs>
</svg>
