<svg xmlns="http://www.w3.org/2000/svg" width="58" height="43" fill="none" viewBox="0 0 58 43"><path fill="#ED1C24" d="M35.6467 11.5838C35.6467 13.9111 34.1513 15.8062 32.3277 15.8062C30.5041 15.8062 29.0088 13.9111 29.0088 11.5838C29.0088 9.25644 30.5041 7.36133 32.3277 7.36133C34.1513 7.36133 35.6467 9.25644 35.6467 11.5838Z"/><path fill="#ED1C24" d="M50.1992 11.5838C50.1992 13.9111 48.7038 15.8062 46.8802 15.8062C45.0566 15.8062 43.5613 13.9111 43.5613 11.5838C43.5613 9.25644 45.0566 7.36133 46.8802 7.36133C48.7038 7.36133 50.1992 9.25644 50.1992 11.5838Z"/><path fill="#ED1C24" d="M50.1992 32.0652C50.1992 34.3926 48.7038 36.2877 46.8802 36.2877C45.0566 36.2877 43.5613 34.3926 43.5613 32.0652C43.5613 29.7379 45.0566 27.8428 46.8802 27.8428C48.7038 27.8428 50.1992 29.7379 50.1992 32.0652Z"/><path fill="#ED1C24" d="M45.2022 14.4775H23.9756V25.5823H45.2022V14.4775Z"/><path fill="#ED1C24" d="M43.7425 41.9065H43.6331C39.2564 41.042 36.8858 36.6533 37.9799 31.4667C38.1623 30.6023 38.4541 29.7046 38.8188 28.8734H36.4481L31.6703 41.9065H24.3394L29.2996 28.8734H23.8653L22.8441 31.5997H15.185L23.6465 9.62299H22.917L16.5709 26.5793H9.16712L15.5132 9.62299H14.0908L9.24006 22.8223H1.90921L6.94233 9.62299H1.61743L2.3104 8.29309C4.53518 4.10388 8.87534 2.57449 11.939 2.54124H28.0231L27.8772 3.00671C29.7008 1.51057 31.5244 1.0451 32.5091 0.912109H32.5821H34.8433H34.9892C35.1351 0.945357 35.2445 0.978605 35.3904 1.01185C35.4998 1.01185 35.901 1.14484 36.0469 1.17809C37.907 1.7433 39.0376 2.84047 39.5482 3.47218C39.6941 3.67166 39.8765 3.9044 39.9494 4.00414C40.2412 4.43636 40.4965 4.90183 40.6788 5.36729C41.2624 4.63585 41.9189 3.93765 42.6483 3.37244C42.6483 3.37244 44.1072 2.34176 44.9825 1.87629C45.4931 1.61031 46.0037 1.44407 46.4779 1.27783C46.6967 1.21134 47.2438 1.0451 47.7909 0.978605H47.8638H50.0886H50.1615C52.4593 1.34433 53.9181 2.60774 54.5746 3.33919C54.8664 3.63842 55.1582 4.10388 55.2676 4.23687C56.5076 6.19849 56.8359 8.75856 56.2888 11.4516C55.0852 17.1702 50.1615 21.6586 45.1284 21.6919C42.1377 21.6919 39.6941 20.0295 38.4905 17.3697C36.4846 20.0628 33.7127 21.7251 31.0867 21.7251C28.4607 21.7251 28.3513 21.2597 27.0748 20.1625L25.7618 23.6868C27.7313 22.4233 29.9196 21.9246 31.7432 21.9246C33.5668 21.9246 43.6331 21.9246 43.6331 21.9246H44.9825L44.8002 22.4233C46.1861 21.7251 47.645 21.3594 49.0674 21.3594C51.1827 21.3594 53.0793 22.1574 54.4287 23.6535C56.2523 25.6816 56.9088 28.6739 56.2523 31.8989C55.1947 36.9193 51.1463 41.1418 46.6238 41.973H46.5143H43.706L43.7425 41.9065ZM47.9003 28.2749C46.7696 28.2749 45.2014 29.8043 44.8002 32.0319C44.5813 33.2621 44.8002 34.4257 45.3837 35.0574C45.639 35.3234 45.9308 35.4564 46.259 35.4564C47.4261 35.4564 48.9944 33.927 49.3591 31.7327C49.578 30.5025 49.3591 29.3056 48.7756 28.7071C48.5203 28.4412 48.2285 28.3082 47.8638 28.3082L47.9003 28.2749ZM33.2021 7.89412C32.035 7.89412 30.5032 9.42351 30.102 11.6511C29.8832 12.8813 30.102 14.0449 30.6855 14.6766C30.9408 14.9426 31.2326 15.0756 31.5973 15.0756C32.728 15.0756 34.2963 13.5462 34.6974 11.3186C34.9163 10.0885 34.6974 8.92479 34.1139 8.29309C33.8586 8.02711 33.5668 7.89412 33.2021 7.89412ZM47.9003 7.82762C46.7696 7.82762 45.2014 9.35701 44.8002 11.5514C44.5813 12.7815 44.8002 13.9452 45.3837 14.5769C45.639 14.8429 45.9308 15.0091 46.2955 15.0091C47.4626 15.0091 48.9944 13.4797 49.3956 11.2521C49.6145 10.022 49.3956 8.8583 48.8121 8.22659C48.5568 7.96061 48.265 7.82762 47.9003 7.82762Z"/><path fill="#ED1C24" d="M46.5871 42.6712H43.7788C43.7058 42.6712 43.6693 42.6712 43.5964 42.6712H43.487C38.6362 41.707 36.0102 36.9526 37.1773 31.367C37.2868 30.8018 37.4326 30.2366 37.6515 29.6714H37.0679L32.4725 42.1725C32.3631 42.4717 32.0348 42.7045 31.6701 42.7045H24.3392C24.0839 42.7045 23.8286 42.5715 23.6463 42.372C23.4639 42.1725 23.4639 41.9065 23.5368 41.6738L28.0958 29.6714H24.4486L23.6463 31.8657C23.5368 32.165 23.2086 32.3977 22.8439 32.3977H15.1848C14.9295 32.3977 14.6742 32.2647 14.4918 32.0652C14.3459 31.8657 14.3095 31.5997 14.3824 31.367C14.3824 31.3005 15.0389 29.6714 15.9142 27.344H9.13045C8.87514 27.344 8.61984 27.2111 8.43748 27.0116C8.29159 26.8121 8.25512 26.5461 8.32806 26.3134L9.34928 23.5538C9.27633 23.5538 9.23986 23.5538 9.16692 23.5538H1.90901C1.6537 23.5538 1.3984 23.4208 1.21604 23.2213C1.07015 23.0219 1.03368 22.7559 1.10663 22.5231L5.73856 10.3877H1.61723C1.32546 10.3877 1.07015 10.2547 0.924266 10.022C0.778378 9.78928 0.741906 9.5233 0.887794 9.29057L1.58076 7.96066C3.95143 3.43898 8.65631 1.80984 11.9388 1.80984H28.0594C28.1323 1.80984 28.1688 1.80984 28.2417 1.80984C29.9194 0.679423 31.5242 0.280452 32.3995 0.147461H32.4725C32.5089 0.147461 32.5454 0.147461 32.6184 0.147461H34.8796C34.9161 0.147461 34.9526 0.147461 34.989 0.147461H35.1349C35.2808 0.180709 35.4267 0.213956 35.6091 0.247204C35.7185 0.247204 36.1561 0.380195 36.302 0.413442C38.3809 1.04515 39.6574 2.27531 40.2045 2.97351C40.3869 3.20625 40.5692 3.47223 40.6422 3.53872C40.7151 3.63846 40.7881 3.77146 40.861 3.8712C41.2622 3.47223 41.6634 3.07326 42.1011 2.74078C42.1011 2.74078 42.1011 2.74078 42.1375 2.70753C42.2105 2.67428 43.6693 1.64361 44.5447 1.14489C45.1282 0.845662 45.6753 0.646176 46.1859 0.479938C46.4047 0.413442 47.0248 0.247204 47.6448 0.147461H47.7177C47.7542 0.147461 47.8271 0.147461 47.8636 0.147461H50.0884C50.1249 0.147461 50.1613 0.147461 50.2343 0.147461H50.3072C52.8967 0.546433 54.5015 1.97608 55.2309 2.77403C55.5227 3.1065 55.8874 3.57197 55.9968 3.77146C57.3098 5.89931 57.711 8.62561 57.1275 11.4849C56.2886 15.3416 53.845 18.6997 50.7814 20.628C52.4955 20.9605 53.9909 21.7917 55.158 23.0551C57.1275 25.2494 57.8569 28.4745 57.1275 31.9322C55.9968 37.2518 51.6932 41.7403 46.8424 42.6047H46.733C46.6965 42.6047 46.6236 42.6047 46.5871 42.6047V42.6712ZM43.8517 41.1418H46.5142C50.7084 40.3771 54.465 36.3874 55.4862 31.6662C56.1063 28.6407 55.5227 25.8811 53.845 24.0193C52.6779 22.7226 51.0002 21.9912 49.1401 21.9912C47.2801 21.9912 46.5506 22.3236 45.2741 22.9554C44.9823 23.1216 44.6176 23.0883 44.3623 22.8889C44.2529 22.7891 44.1435 22.6894 44.107 22.5564H43.7058C43.7058 22.5564 34.1137 22.5564 31.816 22.5564C29.5182 22.5564 27.9135 23.1548 26.3087 24.1855C26.0169 24.385 25.6158 24.3518 25.324 24.1855C25.0322 23.986 24.9228 23.6536 25.0322 23.3211L26.3452 19.7968C26.4181 19.5641 26.6734 19.3646 26.9287 19.2981C27.2205 19.2316 27.5123 19.2981 27.6946 19.4976C28.8253 20.495 30.3936 20.8608 31.123 20.8608C33.4207 20.8608 35.9373 19.3646 37.8338 16.8378C38.0162 16.6051 38.308 16.4721 38.5997 16.5053C38.8915 16.5053 39.1833 16.7048 39.2927 16.9708C40.3869 19.3646 42.5752 20.8275 45.1647 20.8275C49.7966 20.8275 54.3556 16.5718 55.4862 11.2189C55.9968 8.72536 55.6686 6.33153 54.5744 4.53615C54.5015 4.43641 54.2097 4.00419 53.9544 3.73821C53.3709 3.07326 52.0944 1.94283 50.0519 1.64361H47.973C47.4624 1.7101 46.9518 1.87634 46.8059 1.94283C46.3683 2.07583 45.9306 2.24206 45.4929 2.4748C44.7635 2.87377 43.487 3.77146 43.2682 3.90445C42.6117 4.43641 41.9916 5.06811 41.4446 5.76631C41.2622 5.99905 40.9704 6.09879 40.6786 6.06554C40.3869 6.0323 40.1316 5.83281 40.0222 5.60008C39.8398 5.16786 39.621 4.73564 39.3657 4.36991C39.3292 4.30342 39.1833 4.10393 39.0009 3.90445C38.5268 3.37248 37.5421 2.37505 35.9008 1.87634C35.7914 1.87634 35.3902 1.74335 35.3173 1.74335C35.2079 1.74335 35.0984 1.7101 34.989 1.67685H34.9161H32.7642C31.9254 1.80984 30.2477 2.20882 28.57 3.60522C28.2782 3.83795 27.877 3.8712 27.5852 3.67171C27.4393 3.57197 27.3299 3.47223 27.257 3.30599H11.9388C9.13045 3.30599 5.11854 4.73564 3.03964 8.62561L2.93022 8.85835H6.90566C7.16096 8.85835 7.41627 8.99134 7.59863 9.19082C7.74451 9.39031 7.78098 9.65629 7.70804 9.88902L3.07611 22.0577H8.65631L13.3247 9.39031C13.4341 9.09108 13.7624 8.85835 14.1271 8.85835H15.5495C15.8048 8.85835 16.0601 8.99134 16.2425 9.19082C16.3884 9.39031 16.4248 9.65629 16.3519 9.88902L10.407 25.8479H16.0601L22.1874 9.42356C22.2968 9.12433 22.6251 8.92484 22.9898 8.92484H23.7192C23.9745 8.92484 24.2298 9.05783 24.3757 9.22407C24.5216 9.42356 24.5581 9.68954 24.4851 9.92227C24.4851 9.92227 21.7984 16.9154 16.4248 30.9015H22.3333L23.1357 28.7072C23.2451 28.408 23.5733 28.1752 23.938 28.1752H29.3724C29.6277 28.1752 29.883 28.3082 30.0653 28.5077C30.2112 28.7072 30.2477 28.9732 30.1747 29.2059L25.6157 41.2083H31.196L35.7914 28.7072C35.9008 28.408 36.2291 28.1752 36.5938 28.1752H38.9645C39.2562 28.1752 39.5115 28.3082 39.6574 28.5077C39.8033 28.7072 39.8398 28.9732 39.7304 29.2059C39.3657 30.0039 39.1104 30.8351 38.9645 31.6662C37.9433 36.4207 40.0586 40.4436 43.9611 41.2083L43.8517 41.1418ZM27.5488 21.3262L27.3299 21.9579C27.6217 21.8249 27.9135 21.7252 28.1688 21.6587C27.95 21.559 27.7676 21.4592 27.5488 21.3262ZM38.3809 18.7329C37.5056 19.6971 36.5573 20.495 35.5726 21.0935C37.2503 21.0935 39.1468 21.0935 40.7151 21.0935C39.8033 20.495 39.0009 19.6971 38.4174 18.7661L38.3809 18.7329ZM46.3318 36.2212C45.9306 36.2212 45.347 36.0882 44.8 35.5562C44.0341 34.7583 43.7423 33.3951 43.9976 31.9322C44.4353 29.5051 46.1859 27.5435 47.9001 27.5435C49.6143 27.5435 48.9213 27.6765 49.4319 28.2085C50.1978 29.0064 50.4896 30.3696 50.1978 31.8657C49.7602 34.2596 48.0095 36.2212 46.2589 36.2212H46.3318ZM47.9366 29.0397C47.353 29.0397 46.0035 30.2366 45.6753 32.165C45.4565 33.2954 45.7482 34.1931 46.0765 34.592C46.2224 34.725 46.2953 34.725 46.3318 34.725C46.9153 34.725 48.2648 33.6279 48.6295 31.633C48.8484 30.4693 48.5566 29.5716 48.2283 29.2059C48.0824 29.0729 48.0095 29.0729 47.973 29.0729L47.9366 29.0397ZM31.6336 15.8404C31.2324 15.8404 30.6124 15.7074 30.1018 15.1422C29.3724 14.3442 29.0806 12.9811 29.3359 11.5182C29.7371 9.12433 31.4877 7.12947 33.2384 7.12947C34.989 7.12947 34.2596 7.26246 34.7702 7.79442C35.5361 8.59237 35.7914 9.95552 35.5361 11.4184C35.0984 13.8455 33.3478 15.8071 31.5971 15.8071L31.6336 15.8404ZM33.2384 8.65886C32.6548 8.65886 31.3054 9.75603 30.9771 11.7509C30.7583 12.9146 31.0136 13.779 31.3783 14.178C31.5242 14.311 31.5971 14.311 31.6336 14.311C32.2536 14.311 33.5666 13.1473 33.9313 11.2189C34.1502 10.0885 33.8584 9.19082 33.5302 8.8251C33.3843 8.69211 33.3113 8.69211 33.2748 8.69211L33.2384 8.65886ZM46.3318 15.8071C45.9306 15.8071 45.3106 15.6741 44.8 15.1089C44.0341 14.311 43.7788 12.9478 44.0341 11.4517C44.4717 9.05783 46.2224 7.09622 47.9366 7.09622C49.6507 7.09622 48.9578 7.22921 49.4684 7.76117C50.1978 8.55912 50.4896 9.92227 50.2343 11.3852C49.7966 13.8122 48.046 15.7739 46.3318 15.7739V15.8071ZM47.9366 8.62561C47.3165 8.62561 46.0035 9.78928 45.6753 11.7176C45.4565 12.8813 45.7118 13.779 46.0765 14.1447C46.2224 14.2777 46.2953 14.2777 46.3683 14.2777C46.9883 14.2777 48.3013 13.0808 48.6295 11.1524C48.8484 9.98877 48.5566 9.12433 48.2283 8.72536C48.0824 8.59237 48.0095 8.59237 47.9366 8.59237V8.62561Z"/><path fill="#034EA2" d="M25.3253 41.9055L25.6901 40.9746L30.6502 27.9415L20.7663 27.3431L30.9785 4.36893L33.8233 2.20784L34.2974 0.87793H32.4738C31.4891 1.04417 29.6655 1.47639 27.8419 3.00578L27.9878 2.54031H11.8672C8.80356 2.54031 4.46341 4.06971 2.23862 8.29216L1.54565 9.62206H6.83408L1.83743 22.8214H9.16828L14.019 9.62206H15.4414L9.09534 26.5784H16.4991L22.8452 9.62206H23.5747L15.1132 31.5988H22.7723L23.7935 28.8725H29.2278L24.2676 41.8723H25.3253V41.9055Z"/><path fill="#034EA2" d="M25.3251 42.6712H24.2674C24.0121 42.6712 23.7568 42.5382 23.5745 42.3387C23.3921 42.1392 23.3921 41.8733 23.4651 41.6405L28.0241 29.6381H24.3769L23.5745 31.8325C23.4651 32.1317 23.1368 32.3644 22.7721 32.3644H15.113C14.8577 32.3644 14.6024 32.2314 14.42 32.032C14.2741 31.8325 14.2377 31.5665 14.3106 31.3338C14.3106 31.2673 14.9671 29.6381 15.8424 27.3108H9.05867C8.80336 27.3108 8.54806 27.1778 8.3657 26.9783C8.21981 26.7788 8.18334 26.5128 8.25628 26.2801L9.2775 23.5206C9.20455 23.5206 9.16808 23.5206 9.09514 23.5206H1.83723C1.58193 23.5206 1.32662 23.3876 1.14426 23.1881C0.998376 22.9886 0.961904 22.7226 1.03485 22.4899L5.66678 10.3877H1.54545C1.25368 10.3877 0.998376 10.2547 0.852488 10.022C0.706601 9.78928 0.670129 9.5233 0.816016 9.29057L1.50898 7.96066C3.87966 3.43898 8.58453 1.80984 11.867 1.80984H27.9876C28.0605 1.80984 28.097 1.80984 28.1699 1.80984C29.8477 0.679423 31.4524 0.280452 32.3277 0.147461H32.4007C32.4372 0.147461 32.4736 0.147461 32.5466 0.147461H34.2972C34.5525 0.147461 34.8078 0.247204 34.9537 0.44669C35.0996 0.646176 35.1725 0.878909 35.0631 1.11164L34.589 2.44155C34.5525 2.57454 34.4431 2.70753 34.3337 2.80727L31.6348 4.83538L21.8968 26.6458L30.65 27.1778C30.9053 27.1778 31.1606 27.3108 31.2701 27.5103C31.3795 27.7098 31.4524 27.9425 31.3795 28.1752L26.091 42.106C25.9816 42.4052 25.6534 42.6047 25.2887 42.6047L25.3251 42.6712ZM16.2801 30.8683H22.1886L22.9909 28.6739C23.0639 28.5077 23.1733 28.3747 23.3192 28.3082L20.6932 28.142C20.4379 28.142 20.1826 28.009 20.0367 27.7763C19.8908 27.5435 19.8543 27.3108 19.9638 27.0781L30.2124 4.10393C30.2488 4.00419 30.3583 3.8712 30.4677 3.8047L33.1301 1.80984V1.67685C33.1666 1.67685 32.6195 1.67685 32.6195 1.67685C31.7807 1.80984 30.103 2.20882 28.4252 3.60522C28.1335 3.83795 27.7323 3.8712 27.4405 3.67171C27.2946 3.57197 27.1852 3.47223 27.1123 3.30599H11.867C9.05867 3.30599 5.04676 4.73564 2.96786 8.62561L2.85844 8.85835H6.83388C7.08918 8.85835 7.34449 8.99134 7.52685 9.19082C7.67273 9.39031 7.70921 9.65629 7.63626 9.88902L3.00433 22.0577H8.58453L13.2529 9.39031C13.3624 9.09108 13.6906 8.85835 14.0553 8.85835H15.4777C15.733 8.85835 15.9883 8.99134 16.1707 9.19082C16.3166 9.39031 16.353 9.65629 16.2801 9.88902L10.3352 25.8479H15.9883L22.1156 9.42356C22.225 9.12433 22.5533 8.92484 22.918 8.92484H23.6474C23.9027 8.92484 24.158 9.05783 24.3039 9.22407C24.4498 9.42356 24.4863 9.68954 24.4133 9.92227C24.4133 9.92227 21.7266 16.9154 16.353 30.9015L16.2801 30.8683Z"/><path fill="#fff" d="M54.9133 31.6317C56.0074 26.3786 53.2356 22.1562 48.7495 22.1562C46.5977 22.1562 44.4094 23.1536 42.6222 24.7162L43.2787 22.7214C43.2787 22.7214 33.6866 22.7214 31.3889 22.7214C29.0912 22.7214 25.0793 24.018 23.0004 27.3428H22.9639L26.4287 17.9669C27.0852 19.8621 29.5653 20.6933 30.7324 20.6933C33.6502 20.6933 36.6773 18.2994 38.4644 14.8749C39.0115 18.2662 41.3822 20.66 44.7376 20.66C49.2601 20.66 53.7826 16.4043 54.9133 11.1844C55.4603 8.62436 55.0592 6.29703 54.0015 4.6014C53.9285 4.50165 53.6367 4.10268 53.4179 3.8367C52.8708 3.205 51.5943 2.10782 49.6248 1.80859H47.5824C47.1083 1.87509 46.5977 2.04133 46.4153 2.07457C45.9777 2.20757 45.54 2.40705 45.1023 2.60654C44.4458 2.93901 43.7529 3.40448 42.9505 4.00294C41.7469 5.00037 40.6892 6.23053 39.9233 7.66018C39.741 6.43002 39.3398 5.33284 38.7197 4.43516C38.7197 4.36866 38.5374 4.16918 38.3915 4.00294C37.9903 3.50422 37.0056 2.50679 35.4008 2.04133C35.2914 2.04133 34.9267 1.90834 34.8537 1.90834C34.7078 1.90834 34.5984 1.87509 34.4525 1.84184H32.3372C30.8418 2.07457 27.1582 3.1385 24.8969 8.25864L26.3558 3.47098H11.5482C8.6669 3.47098 4.80088 4.93387 2.79492 8.69086H7.90099L2.86787 21.8902H8.04688L12.8976 8.69086H16.4354L10.0893 25.6472H15.3413L21.6874 8.69086H24.6051C24.4228 9.08983 24.2769 9.52205 24.0945 9.95427L16.1072 30.7008H21.6144L22.6356 27.9745H30.2218L25.2616 40.9743H30.4406L35.2184 27.9412H39.8868C39.2304 29.0717 38.7562 30.3351 38.4644 31.6317C37.4797 36.3529 39.6315 40.2429 43.3517 40.9743H45.9777C50.026 40.2429 53.8191 36.3529 54.8039 31.6317H54.9133ZM43.4611 11.4172C43.8988 8.92359 45.7588 6.89548 47.5459 6.89548C49.3331 6.89548 50.4637 8.92359 50.026 11.4172C49.5884 13.9107 47.7283 15.9388 45.9412 15.9388C44.1541 15.9388 42.987 13.9107 43.4611 11.4172ZM28.7629 11.4837C29.2006 8.99009 31.0242 6.96198 32.8478 6.96198C34.6714 6.96198 35.7655 8.95684 35.3279 11.4837C34.8902 13.9772 33.0301 16.0053 31.2065 16.0053C29.3829 16.0053 28.2888 13.9772 28.7264 11.5169L28.7629 11.4837ZM50.0625 31.8645C49.6248 34.358 47.7648 36.3529 45.9777 36.3861C44.1541 36.3861 43.0599 34.358 43.4976 31.8645C43.9352 29.3709 45.7953 27.3428 47.5824 27.3428C49.3695 27.3428 50.5002 29.3709 50.0625 31.8645Z"/></svg>