<svg xmlns="http://www.w3.org/2000/svg" width="87" height="30" fill="none" viewBox="0 0 87 30"><g clip-path="url(#clip0_23369_37197)"><path fill="#E30613" d="M63.2017 20.005C63.7663 20.0644 64.3308 20.1238 64.8809 20.1832C65.2718 20.2277 65.6626 20.2723 66.0535 20.3168H66.0824H66.1114C66.1403 20.3168 66.1693 20.3168 66.1982 20.3168C66.1982 20.3168 66.314 20.3168 66.3285 20.3168C66.3285 20.3168 66.343 20.3168 66.3575 20.3168C66.3719 20.3168 66.6325 20.3465 66.6325 20.3465H66.6759L67.53 20.4505L69.6 20.7178L67.3563 16.8861L67.1826 17.302C66.5891 16.2624 65.9666 15.2079 65.3441 14.1832L65.127 13.8267C65.127 13.8267 65.0401 13.6931 65.0257 13.6782C65.1415 13.6337 65.2573 13.5891 65.3731 13.5297L58.7866 2.28714C57.7588 2.15347 56.731 2.03466 55.7032 1.9307C55.6887 1.9307 55.6743 1.9307 55.6453 1.9307L54.299 1.79704C52.4317 1.61882 50.5498 1.4703 48.6679 1.35149C48.6679 1.4703 48.6969 1.60397 48.6969 1.72278C48.8272 4.69308 46.1347 7.23268 43.3263 7.23268C40.518 7.23268 38.0861 4.70793 37.9558 1.72278C37.9558 1.50001 37.9558 1.26238 37.9703 1.05446C37.8545 1.05446 37.7386 1.05446 37.6373 1.03961H37.6084C37.4347 1.03961 37.2465 1.03961 37.0872 1.03961H37.0728C34.6553 1.03961 32.2233 1.48516 29.8059 1.58912H29.6032L28.4017 1.66337C26.8962 1.75248 25.3763 1.87129 23.8418 1.99011L22.4232 2.10892L22.6258 3.56436C23.0456 6.54951 23.4654 9.20793 23.8852 12.1485C23.8852 12.2228 23.9142 12.3119 23.9142 12.3861C24.0155 13.1139 24.1313 13.8861 23.9287 14.4059C23.7839 14.8069 23.3062 15.1485 22.814 15.2228C22.7416 15.2228 22.6693 15.2376 22.5824 15.2376C22.1626 15.2376 21.7718 15.0594 21.5257 14.7624C21.1493 14.3168 21.019 13.5891 20.8743 12.8168L20.8164 12.4753L20.7005 11.8515C20.1794 9.04456 19.6438 6.19308 19.1082 3.3713L18.8766 2.10892L17.6317 2.25743C16.0972 2.4505 14.5628 2.79209 13.0862 3.00001L11.6531 3.07427L11.8703 4.03961C10.4951 3.63862 9.13432 3.44555 7.81702 3.44555C6.49971 3.44555 6.34048 3.50496 5.63116 3.63862C3.56111 4.00991 1.85295 5.15347 0.926499 6.78714C0.448795 7.67823 0.188229 8.65842 0.144802 9.72773C0.11585 10.6337 0.260609 11.6139 0.564602 12.5495C1.18706 14.4357 2.21485 15.7574 3.60454 16.4703C3.73482 16.5446 3.87958 16.604 4.02434 16.6634L3.77825 18.4158C3.57558 19.8119 3.40187 21.2079 3.24264 22.5891L3.11236 23.6584L4.09672 24.0446C5.57325 24.6089 6.99189 24.9059 8.33815 24.9059C9.6844 24.9059 8.68557 24.9059 8.8448 24.9059C9.46727 24.8762 10.0897 24.7723 10.6688 24.6089C12.1163 24.2079 14.0995 23.3168 15.3445 21.3416C15.7353 20.7178 16.0104 20.0347 16.1696 19.2921C16.3433 19.5149 16.5315 19.7376 16.7486 19.9307C18.0659 21.2376 19.9767 21.9505 22.1192 21.9505C22.2929 21.9505 22.4666 21.9505 22.6403 21.9505C23.0167 21.9357 23.3931 21.8911 23.7839 21.8168C26.2593 21.3861 28.4162 20.0792 29.7045 18.1188C29.8203 17.9555 29.9217 17.7772 30.0085 17.599L30.1388 19.0248L30.2691 20.4059L31.5285 20.2574C32.5563 20.1386 33.5985 20.0347 34.3802 19.9604C34.6987 19.9307 35.0027 19.901 35.3067 19.8713C35.3646 19.8713 35.4225 19.8713 35.4804 19.8564L36.7543 19.7525L36.6095 17.3614C36.5661 16.7228 36.5372 16.0842 36.4937 15.4604C36.4792 15.1337 36.4503 14.8069 36.4358 14.4802C36.8267 14.4654 37.1162 14.4357 37.5505 14.4208H37.7676L37.8979 14.4059C38.8967 14.3317 40.1561 14.1386 41.3866 13.396L41.6616 13.2178C41.7195 13.1733 41.7774 13.1436 41.8208 13.099C42.0959 12.8911 42.3564 12.6535 42.6025 12.401C42.6025 12.401 42.6025 12.401 42.617 12.3861C42.5881 14.2723 42.5446 16.1436 42.5157 18L42.4867 19.4406L44.0067 19.396C45.4832 19.3515 46.9887 19.3366 48.4797 19.3366C49.9708 19.3366 51.2736 19.3515 52.6488 19.396H53.0541L53.8503 19.4406H53.9951C54.907 19.4852 55.8769 19.5297 56.8758 19.5891C57.1508 19.604 57.4403 19.6188 57.7154 19.6337H57.918L58.9313 19.7376L59.105 18.5198V18.4307C59.105 18.3861 59.105 18.3416 59.134 18.2822C59.134 18.2673 59.3222 17.0495 59.3222 17.0495C59.6841 17.7475 60.0315 18.4604 60.3644 19.1584L60.6974 19.8564L61.4501 19.9158C61.9713 19.9604 62.5069 20.0198 63.0425 20.0644H63.1583L63.2017 20.005Z"/><path fill="#E30613" d="M63.1292 20.0941L63.0858 20.1386C63.1292 20.1386 63.1582 20.1386 63.2016 20.1386L63.1292 20.0792V20.0941Z"/><path fill="#E30613" d="M63.2016 20.1535C63.1582 20.1535 63.1292 20.1535 63.0858 20.1535L62.5792 20.703L63.6214 20.5248L63.2016 20.1535Z"/><path fill="url(#paint0_linear_23369_37197)" d="M86.8987 4.96038L86.4789 6.04454L84.2352 11.7921L80.0372 15.0445C80.2688 15.2822 80.4859 15.5346 80.6741 15.802C81.1373 16.4406 81.4703 17.1832 81.6585 17.9851C82.0059 19.4554 81.8611 21.0891 81.2387 22.6931C81.0939 23.0495 80.9347 23.4059 80.761 23.7475C80.3267 24.698 79.7042 25.5891 78.908 26.4208C78.7488 26.599 78.5751 26.7624 78.3869 26.9257C77.1999 28.0099 75.6799 28.8416 73.8849 29.3911C72.9006 29.6881 71.8149 29.8663 70.6423 29.9109H69.2526C68.8039 29.9109 68.3407 29.8515 67.8919 29.7921C67.4142 29.7327 66.951 29.6584 66.4877 29.5841C65.5613 29.4208 64.6493 29.1832 63.7518 28.8861C62.0437 28.3069 60.4079 27.4158 59.0906 26.1683C59.0906 26.1386 59.1774 26.0643 59.2064 26.0495C59.2498 26.0049 59.2932 25.9604 59.3367 25.901C59.4235 25.8119 59.5104 25.7228 59.5828 25.6188C59.6551 25.5148 59.7854 25.396 59.8867 25.2921C60.1184 25.0396 60.35 24.7871 60.5816 24.5346C60.9435 24.1336 61.3054 23.7327 61.6673 23.3465L61.7541 23.2574L63.028 21.8614L63.5781 21.2673L63.5347 21.1782H63.6505L64.6059 20.1386L65.2573 20.7921C65.3152 20.8366 65.3586 20.8812 65.4165 20.9109C65.6771 21.1188 65.9521 21.3119 66.2417 21.4901C66.343 21.5495 66.4443 21.6089 66.5601 21.6683C66.7338 21.7574 66.9075 21.8465 67.0957 21.9208C67.1536 21.9505 67.1971 21.9653 67.255 21.995C68.0946 22.3515 68.9486 22.5891 69.7738 22.6931C69.933 22.7079 70.0922 22.7228 70.2515 22.7376C70.845 22.7673 71.4819 22.7376 72.0031 22.4257C72.0754 22.3812 72.1333 22.3366 72.2057 22.2772C72.2926 22.203 72.3649 22.1138 72.4229 22.0247C72.5097 21.8911 72.5676 21.7277 72.5097 21.5792C72.4518 21.4307 72.2926 21.3267 72.1623 21.2525C72.0465 21.1931 71.9307 21.2228 71.8149 21.1782C71.2214 20.9703 70.5699 20.9406 69.9475 20.8515L69.4698 20.7921L68.138 18.4455L68.8328 16.6485L69.4263 15.1931L73.3783 11.703L74.6956 10.5445L71.7714 10.1435L71.12 10.0544C71.12 10.0544 69.8461 9.87622 69.8461 9.89107L69.021 9.80196L70.3239 2.80692L86.9277 5.01979L86.8987 4.96038Z"/><path fill="#fff" d="M69.9909 1.61881L68.8183 4.63366C68.717 4.48515 68.6157 4.33663 68.4998 4.18812C68.413 4.06931 68.3406 3.99505 68.2682 3.90594C68.0945 3.69802 67.8919 3.50495 67.6602 3.32673C67.3707 3.08911 67.0378 2.88119 66.6614 2.67327C65.6047 2.13861 64.4466 1.90099 63.6649 1.78218L56.6731 0.905941C56.6586 0.905941 56.6296 0.905941 56.6152 0.905941L55.2689 0.772277C51.9684 0.460396 48.61 0.237624 45.2805 0.118812L43.9198 0.0742574L43.8909 1.4703C43.8909 1.73762 43.8909 2.00495 43.8909 2.27228C43.7751 2.13861 43.6592 2.0198 43.529 1.90099C43.4566 1.84158 43.3842 1.76733 43.3118 1.70792C43.2539 1.64851 43.1815 1.60396 43.1236 1.54455C41.5747 0.282178 39.8087 0.0594059 38.6072 0H38.5782C38.4045 0 38.2308 0 38.0571 0H38.0426C35.6251 0 33.1932 0.0742574 30.7757 0.193069H30.5731L29.3716 0.267327L24.8117 0.594059L23.393 0.712871L23.5812 2.03465V2.15347C24.0155 5.13861 24.4353 8.15347 24.8551 11.0941C24.8551 11.1832 24.884 11.2574 24.884 11.3317C24.9854 12.0743 25.1012 12.8317 24.8985 13.3515C24.7827 13.6782 24.4208 13.9752 24.0155 14.1089C23.9431 14.1386 23.8562 14.1535 23.7839 14.1683C23.7115 14.1683 23.6391 14.1832 23.5523 14.1832C23.1325 14.1832 22.7416 14.005 22.4955 13.7079C22.1191 13.2624 21.9889 12.5347 21.8441 11.7624L21.7862 11.4208L21.6704 10.797C21.1493 7.9901 20.6137 5.13861 20.078 2.31683L19.8464 1.06931L18.6015 1.21782C17.0671 1.41089 15.5326 1.60396 14.0561 1.82673L12.623 2.03465L12.8401 3C11.4649 2.59901 10.1042 2.39109 8.78686 2.39109C7.46956 2.39109 7.31032 2.4505 6.60101 2.58416C4.74809 2.91089 3.1847 3.86139 2.21482 5.24257C2.09901 5.40594 1.99768 5.56931 1.89635 5.74752C1.40417 6.60891 1.1436 7.60396 1.11465 8.67327C1.0857 9.57921 1.23046 10.5594 1.53445 11.495C2.15691 13.3812 3.1847 14.703 4.57438 15.4158C4.70467 15.4901 4.84943 15.5495 4.99418 15.6089L4.74809 17.3614C4.54543 18.7574 4.37172 20.1683 4.21249 21.5347L4.0822 22.604L5.06656 22.9901C6.5431 23.5545 7.96174 23.8515 9.30799 23.8515C10.6543 23.8515 9.65542 23.8515 9.81465 23.8515C10.4371 23.8218 11.0596 23.7178 11.6386 23.5545C12.6809 23.2574 13.9982 22.7228 15.1128 21.698C15.5471 21.297 15.9669 20.8366 16.3143 20.2871C16.4156 20.1238 16.517 19.9604 16.6038 19.7822C16.8499 19.3069 17.0236 18.7871 17.1394 18.2376C17.3132 18.4604 17.5013 18.6683 17.7185 18.8762C19.0358 20.1832 20.9466 20.896 23.089 20.896C25.2315 20.896 23.4364 20.896 23.6246 20.896C24.001 20.8812 24.3774 20.8366 24.7682 20.7624C26.708 20.4208 28.4017 19.5446 29.6611 18.2228C29.8058 18.0743 29.9361 17.9257 30.0664 17.7772C30.2546 17.5545 30.4283 17.302 30.5875 17.0644C30.7033 16.901 30.8047 16.7228 30.8915 16.5446L31.0218 17.9703L31.1521 19.3515L32.5128 19.203C33.5406 19.0842 34.5829 18.9802 35.3646 18.9059C35.683 18.8762 36.0015 18.8465 36.291 18.8168C36.3489 18.8168 36.4068 18.8168 36.4647 18.8168H36.7253C36.7253 18.802 37.7386 18.7129 37.7386 18.7129L37.5939 16.3218C37.5504 15.6832 37.5215 15.0594 37.478 14.4208C37.4636 14.0792 37.4346 13.7525 37.4201 13.4257C37.811 13.4109 38.2163 13.3812 38.6506 13.3663H38.8822C39.881 13.2772 41.2707 13.0693 42.4867 12.3416L42.7473 12.1782C42.8052 12.1337 42.8631 12.0891 42.9065 12.0446C43.1815 11.8366 43.4421 11.599 43.6882 11.3465C43.6882 11.3465 43.6882 11.3465 43.7027 11.3317C43.6737 13.2178 43.6303 15.0891 43.6013 16.9455L43.5724 18.3861L44.9766 18.3416C46.4531 18.297 47.9586 18.2822 49.4496 18.2822C50.9406 18.2822 52.2434 18.297 53.6186 18.3416H54.024L54.8201 18.3861H54.9649C55.8769 18.4307 56.8468 18.4752 57.8456 18.5347C58.1206 18.5347 58.4102 18.5644 58.6852 18.5792H58.8879L59.1195 18.6089L59.9156 18.6832L59.9736 18.2822L60.0894 17.4653V17.3762C60.0894 17.3317 60.0894 17.2871 60.1038 17.2277L60.292 15.995C60.6539 16.6931 61.0013 17.4059 61.3343 18.104L61.6672 18.8168L62.42 18.8762C63.5346 18.9802 64.6782 19.099 65.8073 19.2178C66.1982 19.2624 66.589 19.3069 66.9799 19.3515H67.0088H67.0378C67.0667 19.3515 67.0957 19.3515 67.1246 19.3515C67.1246 19.3515 67.2404 19.3515 67.2549 19.3515C67.2549 19.3515 67.2694 19.3515 67.2839 19.3515C67.2983 19.3515 67.5589 19.3812 67.5589 19.3812H67.6023L68.4564 19.5C68.5577 19.5 68.6591 19.5297 68.7459 19.5446C68.7749 19.5446 68.8038 19.5446 68.8183 19.5446C69.0644 19.5743 69.3105 19.604 69.5711 19.6337C70.1935 19.7079 70.8449 19.7376 71.4384 19.9604C71.5543 20.0049 71.6701 20.0495 71.7859 20.1089C71.9161 20.1832 72.0899 20.2723 72.1333 20.4356C72.1912 20.5842 72.1333 20.7624 72.0464 20.8812C71.9885 20.9703 71.9017 21.0594 71.8293 21.1337C71.7714 21.1931 71.699 21.2376 71.6266 21.2822C71.1055 21.6089 70.4541 21.6238 69.8751 21.5941C69.7303 21.5941 69.5711 21.5792 69.3973 21.5495C68.5722 21.4455 67.7326 21.2079 66.8785 20.8515C66.8206 20.8218 66.7772 20.8069 66.7193 20.7772C66.5311 20.703 66.3574 20.6139 66.1837 20.5248C66.0824 20.4653 65.9666 20.4059 65.8652 20.3465C65.5757 20.1683 65.3007 19.9752 65.0401 19.7673C64.9822 19.7228 64.9388 19.6782 64.8809 19.6485L64.1137 18.9951L63.1582 20.0347L63.0859 20.1238L62.5358 20.7178L61.2619 22.1139C61.0737 22.3069 60.9 22.5149 60.7118 22.7079C60.3354 23.1089 59.9736 23.5248 59.5972 23.9257C59.3077 24.2525 59.0037 24.5792 58.7142 24.8911C58.6852 24.9208 58.6418 24.9653 58.6128 24.9951C58.6128 24.9951 59.5393 25.7525 59.6261 25.8119C59.9736 26.0644 60.3499 26.3168 60.7263 26.5248C61.4067 26.9257 62.116 27.2525 62.8398 27.5198C64.2584 28.0545 65.7494 28.4257 67.2404 28.6188C67.805 28.6931 68.3551 28.7376 68.8762 28.7673H70.2659C71.4384 28.7228 72.5241 28.5594 73.5085 28.2475C75.3035 27.698 76.8235 26.8663 78.0105 25.7822C78.1842 25.6188 78.3579 25.4554 78.5316 25.2772C79.3278 24.4455 79.9503 23.5545 80.3845 22.604C80.5582 22.2624 80.7319 21.9059 80.8622 21.5495C81.4847 19.9455 81.6439 18.3119 81.282 16.8416C81.0938 16.0396 80.7609 15.297 80.2977 14.6584C80.1095 14.3911 79.8923 14.1386 79.6607 13.901L83.8587 10.6485L86.1025 4.90099L86.5223 3.81683L69.9185 1.60396L69.9909 1.61881ZM66.2995 13.1733L66.0824 12.8168C66.0824 12.8168 66.01 12.6832 65.981 12.6683C66.1692 12.5941 66.3574 12.5198 66.5456 12.4307L66.6325 12.3861C66.7483 12.3267 66.8496 12.2673 66.9509 12.2079C67.3852 11.9554 67.776 11.6287 68.1235 11.2574C68.4564 10.901 68.7459 10.5 68.9775 10.0693C68.992 10.0396 69.0065 10.0099 69.021 9.99505C69.0789 9.87624 69.1513 9.74257 69.2092 9.59406C69.2671 9.44554 69.325 9.29703 69.3829 9.13366C69.4263 9.01485 69.4697 8.88119 69.4987 8.73267L74.3481 9.38614L73.0308 10.5446L69.0789 14.0347L68.1379 16.3218C67.5444 15.2822 66.922 14.2277 66.2995 13.203V13.1733Z"/><path fill="url(#paint1_linear_23369_37197)" d="M14.0561 11.599C13.1731 10.9753 12.0295 10.5891 10.6253 10.4406C10.4661 10.4258 10.2924 10.4109 10.1331 10.3961C9.35142 10.3366 8.54077 10.2624 7.86041 9.9208C7.62879 9.80199 7.44061 9.57922 7.36823 9.31189C7.28137 9.04457 7.31032 8.79209 7.45508 8.55447C7.65775 8.19803 8.12097 7.88615 8.59868 7.78219C9.48171 7.60397 10.4371 7.78219 11.5952 8.37625L11.8992 8.52476L11.986 8.18318C12.2755 6.93565 12.594 5.67328 12.9125 4.42575L12.9849 4.15843L12.7243 4.08417C10.6687 3.46041 8.65658 3.31189 6.77472 3.63863C5.02314 3.95051 3.57555 4.901 2.80833 6.26734C2.403 6.98021 2.20034 7.78219 2.17139 8.68813C2.14244 9.47526 2.27272 10.3218 2.53329 11.1238C3.05442 12.7277 3.90849 13.8267 5.05209 14.406C6.02197 14.8961 7.10766 14.9852 8.1644 15.0594C8.30916 15.0594 8.45392 15.0891 8.61315 15.0891C8.68553 15.0891 8.74344 15.0891 8.81582 15.104C9.82913 15.1782 11.103 15.2822 11.3636 16.2921C11.4504 16.6485 11.4215 16.9753 11.2478 17.2723C11.0306 17.6584 10.5963 17.9555 10.0752 18.0891C8.71448 18.4307 7.35375 17.8515 6.21016 17.2574L5.86274 17.0792L5.80483 17.4802C5.61665 18.8465 5.42846 20.2426 5.2837 21.6238L5.25475 21.8465L5.45741 21.9208C6.99186 22.5149 8.42497 22.7673 9.77122 22.6931C10.3213 22.6634 10.8569 22.5743 11.378 22.4258C12.6519 22.0693 14.3746 21.297 15.4458 19.6188C16.2709 18.3267 16.4591 16.6485 16.0248 14.6436C15.7353 13.3218 15.0839 12.2822 14.085 11.5693L14.0561 11.599Z"/><path fill="url(#paint2_linear_23369_37197)" d="M29.719 1.6188L29.69 1.35147H29.4295C27.924 1.45543 26.3895 1.55939 24.884 1.6782L24.5945 1.70791L24.6379 2.00494C25.0577 4.99008 25.4775 8.00494 25.8973 10.9604C25.8973 11.0346 25.9118 11.1089 25.9263 11.198C26.0566 12.0742 26.1724 12.9802 25.8829 13.7525C25.5933 14.5099 24.8117 15.1188 23.9286 15.2525C23.0745 15.3861 22.2205 15.0742 21.6849 14.4356C21.1203 13.7673 20.9611 12.8614 20.8018 11.9851C20.7874 11.8663 20.7584 11.7624 20.7439 11.6436C20.1794 8.6287 19.6003 5.56929 19.0358 2.53959L18.9923 2.27226L18.7318 2.30197C17.2263 2.48018 15.7063 2.6881 14.2153 2.91088L13.9113 2.95543L13.9837 3.25246C14.7075 6.51979 15.4313 9.83167 16.1551 13.0693C16.5459 14.7624 17.0671 16.6931 18.4567 18.0594C19.6872 19.2772 21.5401 19.8861 23.5667 19.7673C23.8997 19.7525 24.2471 19.7079 24.58 19.6485C26.7514 19.2772 28.5754 18.1188 29.69 16.4109C30.1967 15.6237 30.5296 14.7772 30.6744 13.797C30.8047 12.9802 30.8191 12.1039 30.7033 11.0198C30.3704 7.90098 30.0374 4.72276 29.7045 1.60395L29.719 1.6188Z"/><path fill="url(#paint3_linear_23369_37197)" d="M43.9343 4.36633C43.8619 4.18811 43.775 4.00989 43.6882 3.84652C43.6447 3.75741 43.5868 3.66831 43.5289 3.59405C43.4855 3.51979 43.4421 3.44553 43.3842 3.38613C43.2105 3.13365 43.0078 2.91088 42.7907 2.68811C42.7328 2.6287 42.6604 2.5693 42.6025 2.50989C42.5591 2.46534 42.5011 2.42078 42.4577 2.37623C41.2562 1.39603 39.8086 1.1584 38.5637 1.099C38.39 1.099 38.2163 1.099 38.0426 1.099H37.9847C37.1016 1.099 36.2186 1.11385 35.3356 1.14355C33.8301 1.17326 32.3101 1.21781 30.8191 1.29207H30.6165L30.5296 1.30692V1.44058L30.5586 1.57425V1.60395C30.5875 1.87128 30.6165 2.15345 30.6454 2.42078C30.7757 3.87623 30.9205 5.33167 31.0507 6.78712C31.0507 6.78712 31.0507 6.81682 31.0507 6.83167C31.2244 8.6584 31.3982 10.5 31.5574 12.3267C31.5863 12.698 31.6298 13.0841 31.6587 13.4554C31.8035 14.9257 31.9338 16.396 32.0785 17.8515L32.1075 18.1337L32.3825 18.104C33.3379 18 34.2933 17.896 35.2487 17.8069C35.5672 17.7772 35.8857 17.7475 36.2041 17.7178C36.2476 17.7178 36.291 17.7178 36.32 17.7178L36.5805 17.6881V17.4059C36.5081 16.4257 36.4502 15.4307 36.3923 14.4505C36.3779 14.1238 36.3489 13.797 36.3344 13.4703C36.3055 13.099 36.291 12.7426 36.2765 12.3713C37.0437 12.3267 37.8254 12.2822 38.5927 12.2525C39.5625 12.1931 40.8364 12.0297 41.9366 11.3762C41.9945 11.3465 42.0379 11.302 42.0958 11.2723C42.1682 11.2277 42.2261 11.1832 42.2985 11.1386C42.5156 10.9752 42.7183 10.797 42.9209 10.5742C43.0512 10.4406 43.167 10.2921 43.2684 10.1287C43.3263 10.0544 43.3697 9.98019 43.4276 9.90593C43.4855 9.81682 43.5434 9.72771 43.5868 9.6386C43.7171 9.40098 43.8329 9.1485 43.9343 8.88118C43.9922 8.71781 44.0501 8.53959 44.108 8.36137C44.2093 7.99009 44.2817 7.60395 44.3251 7.18811C44.3396 6.99504 44.3541 6.80197 44.3541 6.59405C44.3541 5.80692 44.2238 5.04949 43.9487 4.36633H43.9343ZM38.6795 7.94553C38.4769 8.1089 38.2163 8.21286 37.9123 8.28712C37.6952 8.34652 37.4491 8.37623 37.1885 8.39108C37.0293 8.39108 36.8556 8.39108 36.6963 8.40593C36.4937 8.40593 36.2765 8.42078 36.0594 8.43563C36.0594 8.37623 36.0594 8.30197 36.0594 8.24256C36.0449 7.87128 36.016 7.49999 35.987 7.1287C35.9725 6.80197 35.9581 6.47524 35.9291 6.1485C35.9146 5.76237 35.8857 5.39108 35.8712 5.00494C36.262 5.00494 36.6674 4.97524 37.0582 4.97524C37.6662 4.97524 38.2163 5.09405 38.5927 5.36138C39.0125 5.64355 39.2296 6.07425 39.2441 6.65345C39.2441 7.21781 39.0704 7.66336 38.6795 7.94553Z"/><path fill="url(#paint4_linear_23369_37197)" d="M49.4061 13.2327C49.4496 12.5495 49.4785 11.8812 49.5219 11.198C50.9985 11.2426 52.4895 11.302 53.966 11.3763H54.2266L54.2556 11.1238C54.3569 10.0396 54.4727 8.95546 54.574 7.8713L54.603 7.57427H54.3135C52.7935 7.45546 51.259 7.36635 49.7246 7.30694C49.7536 6.65348 49.797 6.01486 49.8259 5.3614C51.4762 5.45051 53.1409 5.55447 54.7912 5.68813H55.0662C55.0662 5.70298 55.0952 5.43566 55.0952 5.43566C55.211 4.3515 55.3123 3.26734 55.4281 2.18318L55.4571 1.901L55.182 1.8713C51.896 1.55942 48.5521 1.33665 45.2516 1.21783H44.9765V1.50001C44.8752 6.63863 44.7883 11.8218 44.7015 16.9307V17.2277H44.991C47.8717 17.1386 50.7958 17.1386 53.6765 17.2277H53.9371L53.966 16.9753C54.0818 15.8911 54.1832 14.8069 54.299 13.7228L54.3279 13.4258H54.0384C52.5184 13.3515 50.9695 13.3069 49.4351 13.2772L49.4061 13.2327Z"/><path fill="url(#paint5_linear_23369_37197)" d="M68.5867 7.26238C68.5867 6.99505 68.5288 6.74258 68.4709 6.47525C68.4709 6.44555 68.4709 6.41584 68.442 6.38614C68.3841 6.17822 68.2972 5.9703 68.2103 5.76238C68.0656 5.4505 67.8919 5.15347 67.6747 4.87129C67.6168 4.79703 67.5589 4.72277 67.4866 4.64852C67.3418 4.48515 67.1826 4.32178 67.0088 4.18812C66.7483 3.9802 66.4732 3.80198 66.1837 3.65347C65.3152 3.20792 64.3453 3 63.5057 2.86634C61.204 2.53961 58.8734 2.24258 56.5717 2.00495C56.5428 2.00495 56.5138 2.00495 56.4994 2.00495H56.427L56.2243 1.97525V2.03466L56.1954 2.25743C56.1954 2.25743 56.1954 2.28713 56.1954 2.30198C56.1664 2.62872 56.123 2.95545 56.0796 3.28218C55.9493 4.4406 55.819 5.59901 55.6887 6.75743C55.6163 7.39604 55.544 8.0198 55.4716 8.65842C55.4716 8.65842 55.4716 8.67327 55.4716 8.68812C55.3268 9.93565 55.1965 11.198 55.0518 12.4307C54.8781 13.9455 54.7188 15.4455 54.5451 16.9307L54.5162 17.2426H54.8925C54.936 17.2426 54.9939 17.2426 55.0518 17.2574C56.0217 17.2871 56.9915 17.3465 57.9614 17.3911C58.2365 17.4059 58.526 17.4208 58.801 17.4356H58.9168H59.0182H59.0616L59.105 17.1832C59.105 17.1832 59.105 17.1683 59.105 17.1535C59.105 17.0941 59.1195 17.0198 59.134 16.9604C59.2208 16.4109 59.2932 15.8762 59.3801 15.3267C59.5248 14.3911 59.6696 13.4554 59.7999 12.5198C60.6974 14.198 61.5514 15.9059 62.3621 17.5693L62.4345 17.7178H62.5937C63.7228 17.8366 64.8664 17.9554 65.9955 18.0743C66.3864 18.1188 66.7917 18.1634 67.1826 18.2079C67.2549 18.2079 67.3128 18.2079 67.3852 18.2228C67.3997 18.2228 67.4142 18.2228 67.4431 18.2228C67.4431 18.2228 67.4721 18.2228 67.4866 18.2228C67.501 18.2228 67.53 18.2228 67.5445 18.2228L67.7761 18.2525H67.834L68.0945 18.297L68.0366 18.1931L67.9353 18L67.9064 17.9406L67.8195 17.7921C67.7761 17.7327 67.7471 17.6733 67.7182 17.6139C67.7037 17.5842 67.6747 17.5396 67.6603 17.5099C67.5734 17.3614 67.4866 17.2129 67.4142 17.0644C67.4142 17.0644 67.3997 17.0347 67.3852 17.0198C66.8641 16.099 66.3285 15.1782 65.7639 14.2574C65.6626 14.0792 65.5468 13.901 65.431 13.7079C65.402 13.6634 65.3876 13.6337 65.3586 13.5891C65.3296 13.5446 65.3152 13.5149 65.2862 13.4703C65.1125 13.1881 64.9533 12.9208 64.7796 12.6386C64.6348 12.401 64.49 12.1634 64.3453 11.9257C64.3887 11.9257 64.4321 11.9257 64.4756 11.9109C65.0401 11.8218 65.6481 11.6881 66.2127 11.3911C66.2127 11.3911 66.2127 11.3911 66.2272 11.3911C66.314 11.3465 66.3864 11.302 66.4732 11.2574C66.8207 11.0495 67.1391 10.797 67.4142 10.4852C67.501 10.3812 67.6024 10.2772 67.6747 10.1733C67.834 9.96535 67.9787 9.75743 68.109 9.5198C68.1814 9.40099 68.2393 9.26733 68.2972 9.13367C68.3406 9.01485 68.3985 8.89604 68.442 8.76238C68.4854 8.64357 68.5143 8.53961 68.5433 8.42079C68.5433 8.42079 68.5433 8.39109 68.5433 8.37624C68.6301 8.00495 68.6591 7.63367 68.6301 7.26238H68.5867ZM62.1739 8.98515C61.8265 9.05941 61.4356 9.05941 61.0593 9.04456C60.9724 9.04456 60.8856 9.04456 60.7987 9.04456C60.6395 9.02971 60.4658 9 60.3065 8.98515C60.3065 8.98515 60.3065 8.95545 60.3065 8.9406C60.3355 8.73268 60.3789 8.5099 60.4079 8.30198C60.4513 7.97525 60.5092 7.66337 60.5526 7.33664C60.625 6.89109 60.6829 6.44555 60.7553 6C60.7698 6 60.7987 6 60.8132 6C60.8566 6 60.9 6 60.9579 6.01485C61.0737 6.02971 61.1895 6.04456 61.3054 6.05941C61.9133 6.14852 62.5358 6.26733 62.9846 6.62376C63.332 6.89109 63.5346 7.42575 63.4623 7.82674C63.3899 8.22773 63.028 8.65842 62.6227 8.85149C62.6082 8.85149 62.5792 8.86634 62.5648 8.88119C62.5503 8.88119 62.5358 8.88119 62.5213 8.89604C62.4055 8.9406 62.3042 8.9703 62.1739 9V8.98515Z"/><path fill="#E30613" d="M68.9776 27.6832C68.4854 27.6535 67.9642 27.6089 67.4286 27.5495C65.9955 27.3713 64.5914 27.0148 63.2451 26.5099C62.0581 26.0644 61.0448 25.5148 60.2341 24.8762L64.2439 20.4653C64.3018 20.5099 64.3598 20.5693 64.4177 20.6139C65.0401 21.104 65.7494 21.5198 66.5022 21.8317C67.4286 22.2178 68.3696 22.4851 69.2816 22.604C69.4697 22.6337 69.6579 22.6485 69.8316 22.6485C70.4686 22.6782 71.0621 22.604 71.5687 22.4406C72.2925 22.203 72.8426 21.7723 73.1032 21.1188C73.3927 20.3762 73.1756 19.8861 72.9005 19.604C72.5531 19.2475 71.9162 18.7723 70.8015 18.6683L68.413 18.3564L69.933 14.6881L76.809 8.61386L68.8038 7.51485L70.6423 2.82178L85.0602 4.73762L83.0047 9.98019L77.9526 13.901L78.329 14.1832C79.3133 14.9109 79.9792 15.9208 80.2687 17.1386C80.5727 18.3861 80.4425 19.797 79.8924 21.1782C79.7621 21.5049 79.6173 21.8168 79.4581 22.1287V22.1436C78.9949 23.1535 78.2855 24.1188 77.3301 24.9802C76.2589 25.9604 74.8837 26.7178 73.2335 27.2079C71.9741 27.5941 70.541 27.7426 68.9631 27.6683L68.9776 27.6832Z"/></g><defs><linearGradient id="paint0_linear_23369_37197" x1="59.091" x2="86.899" y1="16.337" y2="16.337" gradientUnits="userSpaceOnUse"><stop offset=".3" stop-color="#005BC9"/><stop offset=".8" stop-color="#068FFF"/></linearGradient><linearGradient id="paint1_linear_23369_37197" x1="10.784" x2="8.165" y1="28.069" y2="4.039" gradientUnits="userSpaceOnUse"><stop offset=".3" stop-color="#005BC9"/><stop offset=".8" stop-color="#068FFF"/></linearGradient><linearGradient id="paint2_linear_23369_37197" x1="24.334" x2="21.715" y1="26.599" y2="2.569" gradientUnits="userSpaceOnUse"><stop offset=".3" stop-color="#005BC9"/><stop offset=".8" stop-color="#068FFF"/></linearGradient><linearGradient id="paint3_linear_23369_37197" x1="39.548" x2="36.929" y1="24.936" y2=".905" gradientUnits="userSpaceOnUse"><stop offset=".3" stop-color="#005BC9"/><stop offset=".8" stop-color="#068FFF"/></linearGradient><linearGradient id="paint4_linear_23369_37197" x1="51.52" x2="48.9" y1="23.629" y2="-.387" gradientUnits="userSpaceOnUse"><stop offset=".3" stop-color="#005BC9"/><stop offset=".8" stop-color="#068FFF"/></linearGradient><linearGradient id="paint5_linear_23369_37197" x1="62.594" x2="59.974" y1="22.426" y2="-1.59" gradientUnits="userSpaceOnUse"><stop offset=".3" stop-color="#005BC9"/><stop offset=".8" stop-color="#068FFF"/></linearGradient><clipPath id="clip0_23369_37197"><rect width="87" height="30" fill="#fff"/></clipPath></defs></svg>